<?xml version="1.0" standalone="no"?>
<!DOCTYPE svg PUBLIC "-//W3C//DTD SVG 20010904//EN"
 "http://www.w3.org/TR/2001/REC-SVG-20010904/DTD/svg10.dtd">
<svg version="1.0" xmlns="http://www.w3.org/2000/svg"
 width="626.000000pt" height="626.000000pt" viewBox="0 0 626.000000 626.000000"
 preserveAspectRatio="xMidYMid meet">
<metadata>
Created by potrace 1.13, written by Peter Selinger 2001-2015
</metadata>
<g transform="translate(0.000000,626.000000) scale(0.100000,-0.100000)"
fill="#339df5" stroke="none">
<path d="M295 6176 c-72 -23 -127 -57 -177 -109 -105 -109 -142 -252 -102
-388 31 -105 60 -143 204 -270 41 -37 117 -104 169 -150 52 -46 133 -117 180
-158 47 -40 88 -77 91 -81 3 -3 61 -55 130 -115 69 -60 170 -150 225 -200 55
-50 129 -115 165 -145 36 -30 132 -116 215 -190 83 -74 184 -164 225 -200 41
-36 91 -79 110 -96 19 -17 103 -91 185 -164 437 -386 589 -521 665 -590 241
-217 333 -289 402 -314 130 -49 286 -27 393 53 28 21 97 80 155 132 58 52 139
123 180 159 41 35 120 105 175 155 55 50 152 136 215 191 63 55 135 118 160
141 25 22 110 98 190 168 80 70 177 156 215 190 39 34 135 119 215 190 80 70
195 172 255 225 208 184 410 363 475 421 36 31 133 117 215 190 83 73 184 162
225 198 112 100 129 120 168 201 33 68 37 83 37 160 0 117 -35 206 -113 286
-77 78 -160 116 -267 122 -140 7 -223 -30 -377 -169 -40 -37 -98 -88 -129
-115 -135 -117 -305 -267 -314 -278 -5 -6 -44 -40 -85 -76 -41 -36 -156 -137
-255 -225 -100 -88 -260 -229 -356 -314 -178 -158 -203 -180 -465 -412 -137
-122 -185 -164 -324 -285 -25 -22 -67 -60 -94 -84 -164 -148 -305 -272 -328
-288 -25 -18 -25 -18 -398 318 -41 37 -93 83 -115 101 -23 19 -137 120 -255
224 -270 240 -586 520 -670 594 -36 32 -130 115 -210 186 -80 71 -163 144
-185 163 -22 20 -74 65 -115 102 -41 37 -140 125 -220 195 -80 71 -178 158
-218 194 -99 89 -171 136 -236 155 -64 19 -175 20 -231 2z"/>
<path d="M286 3260 c-70 -22 -150 -75 -189 -125 -45 -56 -86 -155 -93 -221
-11 -108 30 -232 103 -309 41 -43 51 -52 248 -225 154 -135 191 -168 265 -235
30 -28 89 -80 130 -115 71 -61 228 -200 315 -279 22 -20 74 -65 115 -101 41
-36 159 -139 261 -230 102 -91 259 -230 350 -310 90 -79 166 -147 169 -150 3
-3 43 -39 90 -80 47 -41 101 -88 120 -106 19 -17 103 -91 185 -164 83 -73 182
-160 220 -195 297 -264 330 -290 409 -320 124 -47 293 -26 388 48 33 25 299
255 308 266 3 3 41 38 85 76 44 39 125 110 180 159 224 199 340 301 504 445
53 46 119 104 147 130 27 25 160 143 294 261 134 118 327 289 430 380 102 91
219 194 260 230 41 36 120 105 175 155 118 106 221 196 290 255 132 111 185
191 207 310 19 100 -18 235 -89 325 -64 81 -201 145 -313 145 -122 0 -204 -41
-361 -181 -41 -37 -139 -124 -219 -194 -80 -70 -163 -144 -185 -165 -22 -20
-74 -65 -115 -101 -41 -35 -143 -124 -225 -199 -83 -74 -182 -162 -220 -195
-39 -32 -113 -98 -165 -145 -82 -75 -245 -218 -475 -420 -35 -30 -134 -118
-221 -195 -454 -402 -526 -465 -534 -465 -8 0 -44 31 -275 235 -93 83 -228
202 -300 265 -152 134 -190 167 -265 235 -30 28 -109 98 -175 155 -66 57 -163
143 -215 190 -52 47 -129 115 -170 150 -66 57 -347 306 -360 320 -3 3 -39 34
-80 70 -73 63 -368 324 -519 459 -41 36 -97 83 -125 104 -97 73 -240 95 -360
57z"/>
</g>
</svg>
