<?xml version="1.0" standalone="no"?>
<!DOCTYPE svg PUBLIC "-//W3C//DTD SVG 20010904//EN"
 "http://www.w3.org/TR/2001/REC-SVG-20010904/DTD/svg10.dtd">
<svg version="1.0" xmlns="http://www.w3.org/2000/svg"
 width="270.000000pt" height="300.000000pt" viewBox="0 0 270.000000 300.000000"
 preserveAspectRatio="xMidYMid meet">
<metadata>
Created by potrace 1.13, written by Peter Selinger 2001-2015
</metadata>
<g transform="translate(0.000000,300.000000) scale(0.100000,-0.100000)"
fill="#242d3f" stroke="none">
<path d="M2093 2985 c-85 -23 -153 -63 -219 -129 -105 -105 -151 -228 -140
-371 3 -44 8 -91 11 -105 5 -24 -17 -38 -447 -286 l-453 -260 -50 40 c-27 23
-79 55 -115 71 -61 28 -72 30 -190 30 -124 0 -126 0 -203 -37 -105 -50 -185
-130 -235 -235 -37 -77 -37 -79 -37 -203 0 -124 0 -126 37 -203 84 -175 244
-277 439 -277 100 0 189 28 275 85 l66 44 456 -264 c290 -167 456 -268 454
-277 -2 -7 -6 -47 -9 -88 -10 -145 37 -272 141 -376 251 -251 670 -157 795
179 128 346 -188 712 -551 636 -79 -16 -170 -63 -230 -118 l-53 -48 -440 253
c-241 140 -443 258 -448 263 -5 5 -1 34 8 66 16 55 17 109 3 270 -3 29 5 34
444 288 l447 258 62 -51 c150 -120 343 -141 516 -55 262 130 350 456 187 700
-112 169 -328 252 -521 200z"/>
</g>
</svg>
